<?xml version="1.0" encoding="utf-8"?>
<!-- Generator: Adobe Illustrator 14.0.0, SVG Export Plug-In . SVG Version: 6.00 Build 43363)  -->
<!DOCTYPE svg PUBLIC "-//W3C//DTD SVG 1.1//EN" "http://www.w3.org/Graphics/SVG/1.1/DTD/svg11.dtd">
<svg version="1.1" id="Layer_1" xmlns="http://www.w3.org/2000/svg" xmlns:xlink="http://www.w3.org/1999/xlink" x="0px" y="0px"
	 width="90.119px" height="90.141px" viewBox="0 0 90.119 90.141" enable-background="new 0 0 90.119 90.141" xml:space="preserve">
<g>
	<g>
		<path fill-rule="evenodd" clip-rule="evenodd" fill="#FFFFFF" d="M0.179,0.141c29.959,0,59.921,0,89.88,0c0,30.001,0,59.999,0,90
			c-30,0-60,0-90,0c0-29.879,0-59.761,0-89.64C0.049,0.33,0.039,0.161,0.179,0.141z M21.059,24.141c0,1,0,2,0,3s0,2,0,3c0,2,0,4,0,6
			c0,4,0,8,0,12c1,0,2,0,3,0s2,0,3,0c0,1,0,2,0,3c1,0,2,0,3,0c-0.079,0.961,0.159,2.239-0.12,3c-1.96,0-3.92,0-5.88,0
			c-0.079,0.961,0.159,2.239-0.12,3c-0.96,0-1.92,0-2.88,0c-0.08,1.96,0.16,4.239-0.12,6c-0.96,0-1.92,0-2.88,0c0,3,0,6,0,9
			c1,0,2,0,3,0c0,2,0,4,0,6c1,0,2,0,3,0c0,1,0,2,0,3c0.961,0.079,2.239-0.159,3,0.12c0,0.96,0,1.92,0,2.88
			c1.96,0.08,4.24-0.16,6,0.12c0,0.96,0,1.92,0,2.88c8,0,16,0,24,0c0-1,0-2,0-3c3,0,6,0,9,0c0-1,0-2,0-3c2,0,4,0,6,0c0-1,0-2,0-3
			c1,0,2,0,3,0c0.079-0.961-0.159-2.239,0.12-3c0.96,0,1.92,0,2.88,0c0.08-1.96-0.16-4.239,0.12-6c0.96,0,1.92,0,2.88,0c0-1,0-2,0-3
			c1,0,2,0,3,0c0-5,0-10,0-15c-1,0-2,0-3,0c0,1,0,2,0,3c-2,0-4,0-6,0c0,1,0,2,0,3c-1,0-2,0-3,0c0,1,0,2,0,3
			c-2.96-0.08-6.24,0.16-9-0.12c0-0.96,0-1.92,0-2.88c-1.96-0.08-4.24,0.16-6-0.12c0-0.96,0-1.92,0-2.88c-1,0-2,0-3,0
			c0.079-0.961-0.159-2.239,0.12-3c0.96,0,1.92,0,2.88,0c0-1,0-2,0-3c1,0,2,0,3,0s2,0,3,0c0-4,0-8,0-12c0-2,0-4,0-6c0-1,0-2,0-3
			s0-2,0-3c-0.961-0.079-2.239,0.159-3-0.12c0-0.96,0-1.92,0-2.88c-0.961-0.079-2.239,0.159-3-0.12c0-0.96,0-1.92,0-2.88
			c-0.961-0.079-2.239,0.159-3-0.12c0-0.96,0-1.92,0-2.88c-8,0-16,0-24,0c-0.079,0.961,0.159,2.239-0.12,3c-0.96,0-1.92,0-2.88,0
			c-0.079,0.961,0.159,2.239-0.12,3c-0.96,0-1.92,0-2.88,0c0-4,0-8,0-12c2,0,4,0,6,0c0-1,0-2,0-3c1,0,2,0,3,0c0-1,0-2,0-3
			c-4,0-8,0-12,0C21.059,10.141,21.059,17.141,21.059,24.141z"/>
		<path fill-rule="evenodd" clip-rule="evenodd" fill="#747474" d="M24.059,21.141c0,1,0,2,0,3c-1,0-2,0-3,0c0-7,0-14,0-21
			c4,0,8,0,12,0c0,1,0,2,0,3c-1,0-2,0-3,0c0,1,0,2,0,3c-2,0-4,0-6,0C24.059,13.141,24.059,17.141,24.059,21.141z"/>
		<path fill-rule="evenodd" clip-rule="evenodd" d="M39.059,51.141c0-6,0-12,0-18c-3,0-6,0-9,0c0-1,0-2,0-3c-2,0-4,0-6,0
			c0-1,0-2,0-3c12,0,24,0,36,0c0,1,0,2,0,3c-2,0-4,0-6,0c0,1,0,2,0,3c-3,0-6,0-9,0c0,6,0,12,0,18c0,1,0,2,0,3c-2,0-4,0-6,0
			C39.059,53.141,39.059,52.141,39.059,51.141z"/>
		<path fill-rule="evenodd" clip-rule="evenodd" fill="#637046" d="M21.059,30.141c1,0,2,0,3,0c0,1,0,2,0,3s0,2,0,3c-1,0-2,0-3,0
			C21.059,34.141,21.059,32.141,21.059,30.141z"/>
		<path fill-rule="evenodd" clip-rule="evenodd" fill="#637046" d="M24.059,48.141c0-4,0-8,0-12c2,0,4,0,6,0c0,0.96,0,1.92,0,2.88
			c0.761,0.279,2.039,0.041,3,0.12c1,0,2,0,3,0c0,4,0,8,0,12c-2,0-4,0-6,0c0-0.96,0-1.92,0-2.88c-0.761-0.279-2.039-0.041-3-0.12
			C26.059,48.141,25.059,48.141,24.059,48.141z"/>
		<path fill-rule="evenodd" clip-rule="evenodd" fill="#6A4D00" d="M60.059,48.141c0-4,0-8,0-12c1,0,2,0,3,0c0,4,0,8,0,12
			C62.059,48.141,61.059,48.141,60.059,48.141z"/>
		<path fill-rule="evenodd" clip-rule="evenodd" fill="#CFC500" d="M21.059,72.141c0-2,0-4,0-6c1,0,2,0,3,0c0,2,0,4,0,6
			C23.059,72.141,22.059,72.141,21.059,72.141z"/>
		<path fill-rule="evenodd" clip-rule="evenodd" fill="#CFC500" d="M24.059,72.141c1,0,2,0,3,0c0,1,0,2,0,3c-1,0-2,0-3,0
			C24.059,74.141,24.059,73.141,24.059,72.141z"/>
		<path fill-rule="evenodd" clip-rule="evenodd" fill="#CFC500" d="M27.059,75.141c1,0,2,0,3,0c0,1,0,2,0,3c-1,0-2,0-3,0
			C27.059,77.141,27.059,76.141,27.059,75.141z"/>
		<path fill-rule="evenodd" clip-rule="evenodd" fill="#CFC500" d="M30.059,78.141c1,0,2,0,3,0c0,1,0,2,0,3c-1,0-2,0-3,0
			C30.059,80.141,30.059,79.141,30.059,78.141z"/>
		<path fill-rule="evenodd" clip-rule="evenodd" fill="#CFC500" d="M33.059,81.141c1,0,2,0,3,0c0,1,0,2,0,3c-1,0-2,0-3,0
			C33.059,83.141,33.059,82.141,33.059,81.141z"/>
		<path fill-rule="evenodd" clip-rule="evenodd" fill="#CFC500" d="M56.939,84.141c-3.96,0-7.92,0-11.88,0c0-1,0-2,0-3c4,0,8,0,12,0
			C56.98,82.102,57.218,83.38,56.939,84.141z"/>
		<path fill-rule="evenodd" clip-rule="evenodd" fill="#F6ED00" d="M27.059,48.141c0.961,0.079,2.239-0.159,3,0.12
			c0,0.96,0,1.92,0,2.88c2,0,4,0,6,0c1,0,2,0,3,0c0,1,0,2,0,3c2,0,4,0,6,0c0-1,0-2,0-3c1,0,2,0,3,0c2,0,4,0,6,0c0-1,0-2,0-3
			c1,0,2,0,3,0c0,1,0,2,0,3c-0.96,0-1.92,0-2.88,0c-0.279,0.761-0.041,2.039-0.12,3c1,0,2,0,3,0c0,0.96,0,1.92,0,2.88
			c1.76,0.28,4.04,0.04,6,0.12c0,0.96,0,1.92,0,2.88c2.76,0.28,6.04,0.04,9,0.12c0-1,0-2,0-3c1,0,2,0,3,0c0-1,0-2,0-3c2,0,4,0,6,0
			c0-1,0-2,0-3c1,0,2,0,3,0c0,5,0,10,0,15c-1,0-2,0-3,0c0,1,0,2,0,3c-0.96,0-1.92,0-2.88,0c-0.28,1.761-0.041,4.04-0.12,6
			c-0.96,0-1.92,0-2.88,0c-0.279,0.761-0.041,2.039-0.12,3c-1,0-2,0-3,0c0,1,0,2,0,3c-2,0-4,0-6,0c0,1,0,2,0,3c-3,0-6,0-9,0
			c0,1,0,2,0,3c-8,0-16,0-24,0c0-0.96,0-1.92,0-2.88c-1.76-0.28-4.04-0.04-6-0.12c0-0.96,0-1.92,0-2.88
			c-0.761-0.279-2.039-0.041-3-0.12c0-1,0-2,0-3c-1,0-2,0-3,0c0-2,0-4,0-6c-1,0-2,0-3,0c0-3,0-6,0-9c0.96,0,1.92,0,2.88,0
			c0.28-1.761,0.041-4.04,0.12-6c0.96,0,1.92,0,2.88,0c0.279-0.761,0.041-2.039,0.12-3c1.96,0,3.92,0,5.88,0
			c0.279-0.761,0.041-2.039,0.12-3c-1,0-2,0-3,0C27.059,50.141,27.059,49.141,27.059,48.141z M57.059,81.141c-4,0-8,0-12,0
			c0,1,0,2,0,3c3.96,0,7.92,0,11.88,0C57.218,83.38,56.98,82.102,57.059,81.141z M33.059,84.141c1,0,2,0,3,0c0-1,0-2,0-3
			c-1,0-2,0-3,0C33.059,82.141,33.059,83.141,33.059,84.141z M30.059,81.141c1,0,2,0,3,0c0-1,0-2,0-3c-1,0-2,0-3,0
			C30.059,79.141,30.059,80.141,30.059,81.141z M27.059,78.141c1,0,2,0,3,0c0-1,0-2,0-3c-1,0-2,0-3,0
			C27.059,76.141,27.059,77.141,27.059,78.141z M24.059,75.141c1,0,2,0,3,0c0-1,0-2,0-3c-1,0-2,0-3,0
			C24.059,73.141,24.059,74.141,24.059,75.141z M24.059,72.141c0-2,0-4,0-6c-1,0-2,0-3,0c0,2,0,4,0,6
			C22.059,72.141,23.059,72.141,24.059,72.141z M47.939,66.141c0.279,0.761,0.041,2.039,0.12,3c7,0,14,0,21,0c0-1,0-2,0-3
			c1,0,2,0,3,0c0-1,0-2,0-3c-1,0-2,0-3,0c0,1,0,2,0,3c-6.96-0.08-14.24,0.16-21-0.12c0-0.96,0-1.92,0-2.88c-2,0-4,0-6,0c0,1,0,2,0,3
			C44.019,66.141,45.979,66.141,47.939,66.141z M72.059,72.141c-2,0-4,0-6,0c-0.079,0.961,0.159,2.239-0.12,3c-0.96,0-1.92,0-2.88,0
			c0,1,0,2,0,3c-1,0-2,0-3,0c0,1,0,2,0,3c1,0,2,0,3,0c0-1,0-2,0-3c2,0,4,0,6,0c0.079-0.961-0.159-2.239,0.12-3c0.96,0,1.92,0,2.88,0
			C72.059,74.141,72.059,73.141,72.059,72.141c1,0,2,0,3,0c0-1,0-2,0-3c-1,0-2,0-3,0C72.059,70.141,72.059,71.141,72.059,72.141z"/>
		<path fill-rule="evenodd" clip-rule="evenodd" fill="#637046" d="M63.059,27.141c-1,0-2,0-3,0c0-0.96,0-1.92,0-2.88
			c-11.76-0.28-24.04-0.04-36-0.12c0,1,0,2,0,3c-1,0-2,0-3,0c0-1,0-2,0-3c1,0,2,0,3,0c0-1,0-2,0-3c0.96,0,1.92,0,2.88,0
			c0.279-0.761,0.041-2.039,0.12-3c0.96,0,1.92,0,2.88,0c0.279-0.761,0.041-2.039,0.12-3c8,0,16,0,24,0c0,0.96,0,1.92,0,2.88
			c0.761,0.279,2.039,0.041,3,0.12c0,0.96,0,1.92,0,2.88c0.761,0.279,2.039,0.041,3,0.12c0,0.96,0,1.92,0,2.88
			c0.761,0.279,2.039,0.041,3,0.12C63.059,25.141,63.059,26.141,63.059,27.141z"/>
		<path fill-rule="evenodd" clip-rule="evenodd" fill="#903800" d="M21.059,27.141c1,0,2,0,3,0c0-1,0-2,0-3
			c11.96,0.08,24.24-0.16,36,0.12c0,0.96,0,1.92,0,2.88c1,0,2,0,3,0c0,1,0,2,0,3c-0.96,0-1.92,0-2.88,0
			c-0.279,0.761-0.041,2.039-0.12,3c-2,0-4,0-6,0c0,1,0,2,0,3c-0.96,0-1.92,0-2.88,0c-0.279,0.761-0.041,2.039-0.12,3
			c-0.96,0-1.92,0-2.88,0c-0.28,3.76-0.04,8.04-0.12,12c-1,0-2,0-3,0c0-6,0-12,0-18c3,0,6,0,9,0c0-1,0-2,0-3c2,0,4,0,6,0
			c0-1,0-2,0-3c-12,0-24,0-36,0c0,1,0,2,0,3c2,0,4,0,6,0c0,1,0,2,0,3c3,0,6,0,9,0c0,6,0,12,0,18c-1,0-2,0-3,0c0-4,0-8,0-12
			c-1,0-2,0-3,0c0-1,0-2,0-3c-1,0-2,0-3,0c0-0.96,0-1.92,0-2.88c-1.76-0.28-4.04-0.04-6-0.12c0-1,0-2,0-3c-1,0-2,0-3,0
			C21.059,29.141,21.059,28.141,21.059,27.141z"/>
		<path fill-rule="evenodd" clip-rule="evenodd" fill="#6A4D00" d="M24.059,33.141c1.96,0.08,4.24-0.16,6,0.12c0,0.96,0,1.92,0,2.88
			c1,0,2,0,3,0c0,1,0,2,0,3c-0.961-0.079-2.239,0.159-3-0.12c0-0.96,0-1.92,0-2.88c-2,0-4,0-6,0c0,4,0,8,0,12c-1,0-2,0-3,0
			c0-4,0-8,0-12c1,0,2,0,3,0C24.059,35.141,24.059,34.141,24.059,33.141z"/>
		<path fill-rule="evenodd" clip-rule="evenodd" fill="#637046" d="M60.059,33.141c0.079-0.961-0.159-2.239,0.12-3
			c0.96,0,1.92,0,2.88,0c0,2,0,4,0,6c-1,0-2,0-3,0c0,4,0,8,0,12c-1,0-2,0-3,0s-2,0-3,0c0,1,0,2,0,3c-2,0-4,0-6,0
			c0.08-3.96-0.16-8.24,0.12-12c0.96,0,1.92,0,2.88,0c1,0,2,0,3,0c0-1,0-2,0-3c2,0,4,0,6,0
			C60.059,35.141,60.059,34.141,60.059,33.141z"/>
		<path fill-rule="evenodd" clip-rule="evenodd" fill="#6A4D00" d="M51.059,39.141c0.079-0.961-0.159-2.239,0.12-3
			c0.96,0,1.92,0,2.88,0c0-1,0-2,0-3c2,0,4,0,6,0c0,1,0,2,0,3c-2,0-4,0-6,0c0,1,0,2,0,3C53.059,39.141,52.059,39.141,51.059,39.141z
			"/>
		<path fill-rule="evenodd" clip-rule="evenodd" fill="#CFC500" d="M42.059,66.141c0-1,0-2,0-3c2,0,4,0,6,0c0,0.96,0,1.92,0,2.88
			c6.76,0.28,14.04,0.04,21,0.12c0-1,0-2,0-3c1,0,2,0,3,0c0,1,0,2,0,3c-1,0-2,0-3,0c0,1,0,2,0,3c-7,0-14,0-21,0
			c-0.079-0.961,0.159-2.239-0.12-3C45.979,66.141,44.019,66.141,42.059,66.141z"/>
		<path fill-rule="evenodd" clip-rule="evenodd" fill="#CFC500" d="M72.059,69.141c1,0,2,0,3,0c0,1,0,2,0,3c-1,0-2,0-3,0
			c0,1,0,2,0,3c-0.96,0-1.92,0-2.88,0c-0.279,0.761-0.041,2.039-0.12,3c-2,0-4,0-6,0c0,1,0,2,0,3c-1,0-2,0-3,0c0-1,0-2,0-3
			c1,0,2,0,3,0c0-1,0-2,0-3c0.96,0,1.92,0,2.88,0c0.279-0.761,0.041-2.039,0.12-3c2,0,4,0,6,0
			C72.059,71.141,72.059,70.141,72.059,69.141z"/>
	</g>
</g>
</svg>
