<?xml version="1.0" encoding="utf-8"?>
<!-- Generator: Adobe Illustrator 14.0.0, SVG Export Plug-In . SVG Version: 6.00 Build 43363)  -->
<!DOCTYPE svg PUBLIC "-//W3C//DTD SVG 1.1//EN" "http://www.w3.org/Graphics/SVG/1.1/DTD/svg11.dtd">
<svg version="1.1" id="Layer_1" xmlns="http://www.w3.org/2000/svg" xmlns:xlink="http://www.w3.org/1999/xlink" x="0px" y="0px"
	 width="90.119px" height="90.141px" viewBox="0 0 90.119 90.141" enable-background="new 0 0 90.119 90.141" xml:space="preserve">
<g>
	<g>
		<path fill-rule="evenodd" clip-rule="evenodd" fill="#FFFFFF" d="M0,90.001c1,0,2,0,3,0c2,0,4,0,6,0s4,0,6,0s4,0,6,0c1,0,2,0,3,0
			c2,0,4,0,6,0c1,0,2,0,3,0c18.96,0,37.92,0,56.88,0c0.279-5.761,0.04-12.04,0.12-18c0-1.961,0-3.921,0-5.881
			c-0.762-0.278-2.04-0.04-3-0.119c0-1,0-2,0-3c-1,0-2,0-3,0c0-0.961,0-1.921,0-2.881c-0.762-0.278-2.04-0.04-3-0.119
			c0-1.961,0-3.921,0-5.881c-0.762-0.278-2.04-0.04-3-0.119c0-0.961,0-1.921,0-2.881c-0.762-0.278-2.04-0.04-3-0.119
			c0-0.961,0-1.921,0-2.881c-0.762-0.278-2.04-0.041-3-0.119c0-1.961,0-3.921,0-5.881c-0.762-0.278-2.04-0.04-3-0.119
			c0-2.961,0-5.921,0-8.881c-0.762-0.278-2.04-0.041-3-0.12c0-5.96,0-11.92,0-17.88c-0.762-0.278-2.04-0.041-3-0.12
			c0-0.96,0-1.92,0-2.88c-0.762-0.278-2.04-0.041-3-0.12c0-1,0-2,0-3c-3,0-6,0-9,0c0-1,0-2,0-3c-4.96,0-9.92,0-14.88,0
			C35.841,6.762,36.079,8.039,36,9c-2.96,0-5.92,0-8.88,0c-0.279,0.762-0.041,2.039-0.12,3c-0.96,0-1.92,0-2.88,0
			c-0.279,0.762-0.041,2.039-0.12,3c-1,0-2,0-3,0c0,2,0,4,0,6c-1,0-2,0-3,0c0,1,0,2,0,3c-2,0-4,0-6,0c0-1,0-2,0-3
			c-2.96,0-5.92,0-8.88,0C2.84,25.721,3.08,30.96,3,35.88c0.761,0.279,2.039,0.041,3,0.12c0,1.001,0,2.001,0,3.001c6,0,12,0,18,0
			c0,1,0,2,0,3c-1.96,0-3.92,0-5.88,0c-0.279,0.761-0.041,2.039-0.12,3c-1,0-2,0-3,0c0,2,0,4,0,6c-1,0-2,0-3,0c0,2,0,4,0,6
			c-1,0-2,0-3,0c0,3.96,0,7.92,0,11.88c0.761,0.278,2.039,0.04,3,0.12c0,1,0,2,0,3c-0.96,0-1.92,0-2.88,0
			c-0.279,0.761-0.041,2.039-0.12,3c-1,0-2,0-3,0c0,2,0,4,0,6c-1,0-2,0-3,0c0,2,0,4,0,6c-1,0-2,0-3,0C0,58,0,29,0,0
			c30.04,0,60.079,0,90.119,0c0,30.041,0,60.08,0,90.12C60.12,90.04,29.799,90.28,0,90.001z"/>
		<path fill-rule="evenodd" clip-rule="evenodd" fill="#8D8D8D" d="M90,72.001c-1,0-2,0-3,0c0-0.961,0-1.921,0-2.881
			c-0.762-0.278-2.04-0.041-3-0.119c0-0.961,0-1.921,0-2.881c-0.762-0.278-2.04-0.041-3-0.119c0-0.961,0-1.921,0-2.881
			c-0.762-0.278-2.04-0.041-3-0.119c0-2,0-4,0-6c-1,0-2,0-3,0c0-1,0-2,0-3c-1,0-2,0-3,0c0-1,0-2,0-3c-1,0-2,0-3,0c0-2,0-4,0-6
			c-1,0-2,0-3,0c0-3,0-6,0-9.001c-1,0-2,0-3,0c0-6,0-12,0-18c-1,0-2,0-3,0c0-0.96,0-1.92,0-2.88c-0.762-0.278-2.04-0.041-3-0.12
			c0-0.96,0-1.92,0-2.88c-2.761-0.279-6.04-0.04-9-0.12c0-0.96,0-1.92,0-2.88C45.239,8.841,41.96,9.08,39,9c0,1,0,2,0,3
			c-3,0-6,0-9,0c0,1,0,2,0,3c-0.96,0-1.92,0-2.88,0c-0.279,0.762-0.041,2.039-0.12,3c-0.96,0-1.92,0-2.88,0
			c-0.28,1.761-0.041,4.04-0.12,6c-1,0-2,0-3,0c0,1,0,2,0,3c-1,0-2,0-3,0c0-1,0-2,0-3s0-2,0-3c1,0,2,0,3,0c0-2,0-4,0-6c1,0,2,0,3,0
			c0.079-0.961-0.159-2.238,0.12-3c0.96,0,1.92,0,2.88,0c0.079-0.961-0.159-2.238,0.12-3c2.96,0,5.92,0,8.88,0
			c0.079-0.961-0.159-2.238,0.12-3C41.08,6,46.04,6,51,6c0,1,0,2,0,3c3,0,6,0,9,0c0,1,0,2,0,3c0.96,0.079,2.238-0.158,3,0.12
			c0,0.96,0,1.92,0,2.88c0.96,0.079,2.238-0.158,3,0.12c0,5.96,0,11.92,0,17.88c0.96,0.079,2.238-0.158,3,0.12
			c0,2.96,0,5.92,0,8.881c0.96,0.079,2.238-0.159,3,0.119c0,1.96,0,3.92,0,5.881c0.96,0.078,2.238-0.159,3,0.119
			c0,0.96,0,1.92,0,2.881c0.96,0.079,2.238-0.159,3,0.119c0,0.96,0,1.92,0,2.881c0.96,0.079,2.238-0.159,3,0.119
			c0,1.96,0,3.92,0,5.881c0.96,0.079,2.238-0.159,3,0.119c0,0.96,0,1.92,0,2.881c1,0,2,0,3,0c0,1,0,2,0,3
			c0.96,0.079,2.238-0.159,3,0.119C90,68.08,90,70.04,90,72.001z"/>
		<path fill-rule="evenodd" clip-rule="evenodd" fill="#FF8000" d="M18,24c0,1,0,2,0,3c1,0,2,0,3,0c4,0,8,0,12,0c1,0,2,0,3,0
			c0,1,0,2,0,3c-7,0-14,0-21,0c0-0.96,0-1.92,0-2.88c-1.761-0.279-4.04-0.04-6-0.12c0-0.96,0-1.92,0-2.88
			C8.238,23.842,6.961,24.079,6,24c0,3,0,6,0,9c1,0,2,0,3,0c0,0.96,0,1.92,0,2.88c6.76,0.28,14.04,0.04,21,0.12
			c0,2.001,0,4.001,0,6.001c-1,0-2,0-3,0c0,1,0,2,0,3c-2,0-4,0-6,0c0,1,0,2,0,3c-0.96,0-1.92,0-2.88,0
			c-0.28,1.76-0.041,4.039-0.12,6c-0.96,0-1.92,0-2.88,0c-0.28,1.72-0.041,3.959-0.12,5.88c0.761,0.278,2.039,0.04,3,0.12
			c0-1,0-2,0-3c1,0,2,0,3,0c0-1,0-2,0-3c0.96,0,1.92,0,2.88,0c0.279-1.761,0.04-4.04,0.12-6c2,0,4,0,6,0c0-1,0-2,0-3c2,0,4,0,6,0
			c0,1,0,2,0,3c-0.96,0-1.92,0-2.88,0c-0.279,0.761-0.041,2.039-0.12,3c-1,0-2,0-3,0c0,1,0,2,0,3c-0.96,0-1.92,0-2.88,0
			c-0.28,1.76-0.041,4.039-0.12,6c-0.96,0-1.92,0-2.88,0c-0.279,0.761-0.041,2.039-0.12,3c-2,0-4,0-6,0c0,1,0,2,0,3c-1,0-2,0-3,0
			c0,1,0,2,0,3c-1,0-2,0-3,0c-0.961-0.08-2.239,0.158-3-0.12c0-3.96,0-7.92,0-11.88c1,0,2,0,3,0c0-2,0-4,0-6c1,0,2,0,3,0
			c0-2,0-4,0-6c1,0,2,0,3,0c0.079-0.961-0.159-2.239,0.12-3c1.96,0,3.92,0,5.88,0c0-1,0-2,0-3c-6,0-12,0-18,0c0-1,0-2,0-3.001
			c-0.961-0.079-2.239,0.159-3-0.12C3.08,30.96,2.84,25.721,3.12,21c2.96,0,5.92,0,8.88,0c0,1,0,2,0,3C14,24,16,24,18,24z"/>
		<path fill-rule="evenodd" clip-rule="evenodd" fill="#BD5100" d="M36,30c0,2,0,4,0,6c1,0,2,0,3,0c0,2.001,0,4.001,0,6.001
			c-1,0-2,0-3,0c0,1,0,2,0,3c-2,0-4,0-6,0c0,1,0,2,0,3c-2,0-4,0-6,0c-0.08,1.96,0.159,4.239-0.12,6c-0.96,0-1.92,0-2.88,0
			c0,1,0,2,0,3c-1,0-2,0-3,0c0,1,0,2,0,3c-0.961-0.08-2.239,0.158-3-0.12c0.079-1.921-0.16-4.16,0.12-5.88c0.96,0,1.92,0,2.88,0
			c0.079-1.961-0.16-4.24,0.12-6c0.96,0,1.92,0,2.88,0c0-1,0-2,0-3c2,0,4,0,6,0c0-1,0-2,0-3c1,0,2,0,3,0c0-2,0-4,0-6.001
			c-6.96-0.08-14.24,0.16-21-0.12c0-0.96,0-1.92,0-2.88c-1,0-2,0-3,0c0-3,0-6,0-9c0.961,0.079,2.238-0.158,3,0.12
			c0,0.96,0,1.92,0,2.88c1.96,0.08,4.239-0.159,6,0.12c0,0.96,0,1.92,0,2.88C22,30,29,30,36,30z"/>
		<path fill-rule="evenodd" clip-rule="evenodd" fill="#FEFFFF" d="M42,33c0-3,0-6,0-9c1,0,2,0,3,0c0,1.96,0,3.92,0,5.88
			c0.761,0.279,2.039,0.041,3,0.12c0-2,0-4,0-6c1,0,2,0,3,0c0,3,0,6,0,9C48,33,45,33,42,33z"/>
		<path fill-rule="evenodd" clip-rule="evenodd" fill="#FFFFFF" d="M27,60.001c1,0,2,0,3,0c0-1,0-2,0-3c1,0,2,0,3,0c0,2,0,4,0,6
			c1,0,2,0,3,0c0,2,0,4,0,6c1,0,2,0,3,0c0,3,0,6,0,9c-0.96,0-1.92,0-2.88,0c-0.279,0.761-0.041,2.039-0.12,3c-1,0-2,0-3,0
			c0,1,0,2,0,3c-2,0-4,0-6,0c0-2,0-4,0-6c-1,0-2,0-3,0c0-5,0-10,0-15c0.96,0,1.92,0,2.88,0C27.158,62.239,26.921,60.961,27,60.001z"
			/>
		<path fill-rule="evenodd" clip-rule="evenodd" fill="#DEDEDE" d="M27,60.001c-0.079,0.96,0.158,2.238-0.12,3
			c-0.96,0-1.92,0-2.88,0c0.079-0.961-0.159-2.239,0.12-3C25.08,60.001,26.04,60.001,27,60.001z"/>
		<path fill-rule="evenodd" clip-rule="evenodd" fill="#EEEEEE" d="M9,90.001c0-3,0-6,0-9c1,0,2,0,3,0c0,2,0,4,0,6c1,0,2,0,3,0
			c0,1,0,2,0,3C13,90.001,11,90.001,9,90.001z"/>
		<path fill-rule="evenodd" clip-rule="evenodd" fill="#EEEEEE" d="M30,87.001c1,0,2,0,3,0c0,1,0,2,0,3c-1,0-2,0-3,0
			C30,89.001,30,88.001,30,87.001z"/>
		<path fill-rule="evenodd" clip-rule="evenodd" fill="#8D8D8D" d="M12,69.001c1,0,2,0,3,0c0-1,0-2,0-3c1,0,2,0,3,0c0-1,0-2,0-3
			c2,0,4,0,6,0c0,5,0,10,0,15c1,0,2,0,3,0c0,2,0,4,0,6c2,0,4,0,6,0c0-1,0-2,0-3c1,0,2,0,3,0c0.079-0.961-0.159-2.239,0.12-3
			c0.96,0,1.92,0,2.88,0c0-3,0-6,0-9c-1,0-2,0-3,0c0-2,0-4,0-6c-1,0-2,0-3,0c0-2,0-4,0-6c-1,0-2,0-3,0c0,1,0,2,0,3c-1,0-2,0-3,0
			c0.079-1.961-0.16-4.24,0.12-6c0.96,0,1.92,0,2.88,0c1,0,2,0,3,0c0,1,0,2,0,3c1,0,2,0,3,0c0,1,0,2,0,3s0,2,0,3c1,0,2,0,3,0
			c0,2,0,4,0,6c1,0,2,0,3,0c0,1,0,2,0,3c0,2,0,4,0,6c-1,0-2,0-3,0c0,1,0,2,0,3c-1,0-2,0-3,0c0,1,0,2,0,3c-0.96,0-1.92,0-2.88,0
			c-0.279,0.761-0.041,2.039-0.12,3c-1,0-2,0-3,0s-2,0-3,0c0-0.961,0-1.921,0-2.881c-0.762-0.278-2.039-0.04-3-0.119c0-1,0-2,0-3
			c-1,0-2,0-3,0c0-4.961,0-9.921,0-14.881c-0.762-0.278-2.039-0.04-3-0.119c0,1,0,2,0,3c-0.96,0-1.92,0-2.88,0
			c-0.279,0.761-0.041,2.039-0.12,3c-1,0-2,0-3,0c0,1,0,2,0,3c-0.96,0-1.92,0-2.88,0c-0.28,1.76-0.041,4.039-0.12,6
			c-0.96,0-1.92,0-2.88,0c-0.28,1.76-0.041,4.039-0.12,6c-0.96,0-1.92,0-2.88,0c-0.279,0.761-0.041,2.039-0.12,3c-1,0-2,0-3,0
			c0-1,0-2,0-3c1,0,2,0,3,0c0-2,0-4,0-6c1,0,2,0,3,0c0-2,0-4,0-6c1,0,2,0,3,0c0.079-0.961-0.159-2.239,0.12-3c0.96,0,1.92,0,2.88,0
			C12,71.001,12,70.001,12,69.001z"/>
		<path fill-rule="evenodd" clip-rule="evenodd" fill="#EEEEEE" d="M42,69.001c1,0,2,0,3,0c0,1,0,2,0,3c1,0,2,0,3,0c0,1,0,2,0,3
			c1,0,2,0,3,0c0,0.96,0,1.92,0,2.88c1.76,0.279,4.039,0.04,6,0.12c0,1,0,2,0,3c-2,0-4,0-6,0c0-1,0-2,0-3c-1,0-2,0-3,0c0-1,0-2,0-3
			c-1,0-2,0-3,0c0-0.961,0-1.921,0-2.881c-0.762-0.278-2.039-0.041-3-0.119C42,71.001,42,70.001,42,69.001z"/>
		<path fill-rule="evenodd" clip-rule="evenodd" fill="#FEFFFF" d="M36,60.001c0.96,0,1.92,0,2.88,0c0.278-0.762,0.041-2.04,0.12-3
			c-1,0-2,0-3,0c0-1,0-2,0-3c-1,0-2,0-3,0c0-1,0-2,0-3c0.079-0.961-0.159-2.239,0.12-3c0.96,0,1.92,0,2.88,0c0-1,0-2,0-3s0-2,0-3
			c1,0,2,0,3,0c0-2,0-4,0-6.001c-1,0-2,0-3,0c0-2,0-4,0-6c0-1,0-2,0-3c1,0,2,0,3,0c0,2,0,4,0,6c0,1,0,2,0,3c1,0,2,0,3,0
			c0,0.961,0,1.921,0,2.881c2.76,0.279,6.039,0.04,9,0.12c0-1,0-2,0-3.001c0.96,0,1.92,0,2.88,0c0.278-0.761,0.04-2.039,0.12-3
			c0-4,0-8,0-12c0.96,0,1.92,0,2.88,0c0.278-0.761,0.04-2.039,0.12-3c-3,0-6,0-9,0c0,1,0,2,0,3c-3,0-6,0-9,0c0,1,0,2,0,3
			c-2,0-4,0-6,0c0,1,0,2,0,3c-4,0-8,0-12,0c0-1,0-2,0-3c1,0,2,0,3,0c0.079-1.96-0.16-4.239,0.12-6c0.96,0,1.92,0,2.88,0
			c0.079-0.961-0.159-2.238,0.12-3c0.96,0,1.92,0,2.88,0c0-1,0-2,0-3c3,0,6,0,9,0c0-1,0-2,0-3c2.96,0.08,6.239-0.159,9,0.12
			c0,0.96,0,1.92,0,2.88c2.96,0.08,6.239-0.159,9,0.12c0,0.96,0,1.92,0,2.88c0.96,0.079,2.238-0.158,3,0.12c0,0.96,0,1.92,0,2.88
			c1,0,2,0,3,0c0,6,0,12,0,18c1,0,2,0,3,0c0,3.001,0,6.001,0,9.001c1,0,2,0,3,0c0,2,0,4,0,6c1,0,2,0,3,0c0,1,0,2,0,3c1,0,2,0,3,0
			c0,1,0,2,0,3c1,0,2,0,3,0c0,2,0,4,0,6c0.96,0.078,2.238-0.159,3,0.119c0,0.96,0,1.92,0,2.881c0.96,0.078,2.238-0.159,3,0.119
			c0,0.96,0,1.92,0,2.881c0.96,0.078,2.238-0.159,3,0.119c0,0.96,0,1.92,0,2.881c1,0,2,0,3,0c-0.08,5.96,0.159,12.239-0.12,18
			c-18.96,0-37.92,0-56.88,0c0-1,0-2,0-3c0.079-0.961-0.159-2.239,0.12-3c0.96,0,1.92,0,2.88,0c0-1,0-2,0-3c1,0,2,0,3,0c0-1,0-2,0-3
			c1,0,2,0,3,0c0-2,0-4,0-6c0.961,0.078,2.238-0.159,3,0.119c0,0.96,0,1.92,0,2.881c1,0,2,0,3,0c0,1,0,2,0,3c1,0,2,0,3,0
			c0,1,0,2,0,3c2,0,4,0,6,0c0-1,0-2,0-3c-1.961-0.08-4.24,0.159-6-0.12c0-0.96,0-1.92,0-2.88c-1,0-2,0-3,0c0-1,0-2,0-3c-1,0-2,0-3,0
			c0-1,0-2,0-3c-1,0-2,0-3,0s-2,0-3,0c0-2,0-4,0-6c-1,0-2,0-3,0C36,62.001,36,61.001,36,60.001z M57.119,57.001
			c0.96,0,1.92,0,2.881,0c0-1,0-2,0-3c-1,0-2,0-3,0c0,1,0,2,0,3c-3,0-6,0-9,0c0,1,0,2,0,3c-3,0-6,0-9,0c0,1,0,2,0,3c3,0,6,0,9,0
			c0-1,0-2,0-3c3,0,6,0,9,0C57.079,59.04,56.841,57.762,57.119,57.001z"/>
		<path fill-rule="evenodd" clip-rule="evenodd" fill="#EEEEEE" d="M57,60.001c-3,0-6,0-9,0c0,1,0,2,0,3c-3,0-6,0-9,0c0-1,0-2,0-3
			c3,0,6,0,9,0c0-1,0-2,0-3c3,0,6,0,9,0c0-1,0-2,0-3c1,0,2,0,3,0c0,1,0,2,0,3c-0.961,0-1.921,0-2.881,0
			C56.841,57.762,57.079,59.04,57,60.001z"/>
		<path fill-rule="evenodd" clip-rule="evenodd" fill="#EEEEEE" d="M33,51.001c0,1,0,2,0,3c1,0,2,0,3,0c0,1,0,2,0,3c1,0,2,0,3,0
			c-0.079,0.96,0.158,2.238-0.12,3c-0.96,0-1.92,0-2.88,0c0-1,0-2,0-3c-1,0-2,0-3,0c0-1,0-2,0-3c-1,0-2,0-3,0c0-1,0-2,0-3
			C31,51.001,32,51.001,33,51.001z"/>
		<path fill-rule="evenodd" clip-rule="evenodd" fill="#EEEEEE" d="M39,33c1,0,2,0,3,0c0,0.96,0,1.92,0,2.88
			c2.76,0.28,6.039,0.04,9,0.12c0-1,0-2,0-3c1,0,2,0,3,0c-0.08,0.961,0.158,2.239-0.12,3c-0.96,0-1.92,0-2.88,0
			c0,1.001,0,2.001,0,3.001c-2.961-0.08-6.24,0.159-9-0.12c0-0.96,0-1.92,0-2.881c-1,0-2,0-3,0C39,35,39,34,39,33z"/>
		<path fill-rule="evenodd" clip-rule="evenodd" d="M54,33c-1,0-2,0-3,0c0,1,0,2,0,3c-2.961-0.08-6.24,0.16-9-0.12
			c0-0.96,0-1.92,0-2.88c-1,0-2,0-3,0c0-2,0-4,0-6c-1,0-2,0-3,0s-2,0-3,0c0-1,0-2,0-3c2,0,4,0,6,0c0-1,0-2,0-3c3,0,6,0,9,0
			c0-1,0-2,0-3c3,0,6,0,9,0c-0.08,0.961,0.158,2.239-0.12,3c-0.96,0-1.92,0-2.88,0C54,25,54,29,54,33z M51,33c0-3,0-6,0-9
			c-1,0-2,0-3,0c0,2,0,4,0,6c-0.961-0.079-2.239,0.159-3-0.12c0-1.96,0-3.92,0-5.88c-1,0-2,0-3,0c0,3,0,6,0,9C45,33,48,33,51,33z"/>
		<path fill-rule="evenodd" clip-rule="evenodd" fill="#EEEEEE" d="M21,90.001c0-1,0-2,0-3c-1,0-2,0-3,0c0-1,0-2,0-3c-1,0-2,0-3,0
			c0-2,0-4,0-6c1,0,2,0,3,0c0,2,0,4,0,6c1,0,2,0,3,0c0,1,0,2,0,3c1,0,2,0,3,0c0,1,0,2,0,3C23,90.001,22,90.001,21,90.001z"/>
		<path fill-rule="evenodd" clip-rule="evenodd" fill="#FEFFFF" d="M3,90.001c0.079-0.961-0.159-2.239,0.12-3c0.96,0,1.92,0,2.88,0
			c0.079-1.961-0.16-4.24,0.12-6c0.96,0,1.92,0,2.88,0c0.079-1.961-0.16-4.24,0.12-6c0.96,0,1.92,0,2.88,0c0-1,0-2,0-3c1,0,2,0,3,0
			c0.079-0.961-0.159-2.239,0.12-3c0.96,0,1.92,0,2.88,0c0-1,0-2,0-3c0.961,0.079,2.238-0.159,3,0.119c0,4.96,0,9.92,0,14.881
			c1,0,2,0,3,0c0,1,0,2,0,3c0.961,0.079,2.238-0.159,3,0.119c0,0.96,0,1.92,0,2.881c1,0,2,0,3,0c0,1,0,2,0,3c-2,0-4,0-6,0
			c0-1,0-2,0-3c-1,0-2,0-3,0c0-1,0-2,0-3c-1,0-2,0-3,0c0-2,0-4,0-6c-1,0-2,0-3,0c0,2,0,4,0,6c1,0,2,0,3,0c0,1,0,2,0,3c1,0,2,0,3,0
			c0,1,0,2,0,3c-2,0-4,0-6,0c0-1,0-2,0-3c-1,0-2,0-3,0c0-2,0-4,0-6c-1,0-2,0-3,0c0,3,0,6,0,9C7,90.001,5,90.001,3,90.001z"/>
	</g>
</g>
</svg>
