<?xml version="1.0" encoding="utf-8"?>
<!-- Generator: Adobe Illustrator 14.0.0, SVG Export Plug-In . SVG Version: 6.00 Build 43363)  -->
<!DOCTYPE svg PUBLIC "-//W3C//DTD SVG 1.1//EN" "http://www.w3.org/Graphics/SVG/1.1/DTD/svg11.dtd">
<svg version="1.1" id="Layer_1" xmlns="http://www.w3.org/2000/svg" xmlns:xlink="http://www.w3.org/1999/xlink" x="0px" y="0px"
	 width="90.119px" height="90.141px" viewBox="0 0 90.119 90.141" enable-background="new 0 0 90.119 90.141" xml:space="preserve">
<g>
	<g>
		<path fill-rule="evenodd" clip-rule="evenodd" fill="#FC7F6A" d="M39.059,12.07c0,4,0,8,0,12c-0.96,0-1.92,0-2.88,0
			c-0.279,0.761-0.041,2.039-0.12,3c-1,0-2,0-3,0c0-2,0-4,0-6c0.96,0,1.92,0,2.88,0c0.279-0.761,0.041-2.039,0.12-3c-2,0-4,0-6,0
			c0-1,0-2,0-3c-1,0-2,0-3,0c0-1,0-2,0-3c0.96,0,1.92,0,2.88,0c0.28-1.761,0.041-4.04,0.12-6c2,0,4,0,6,0c0,1,0,2,0,3c1,0,2,0,3,0
			C39.059,10.07,39.059,11.07,39.059,12.07z"/>
		<path fill-rule="evenodd" clip-rule="evenodd" d="M51.059,6.07c0,1,0,2,0,3c1,0,2,0,3,0c0,2,0,4,0,6c-1,0-2,0-3,0c0,1,0,2,0,3
			c-1,0-2,0-3,0c0-0.96,0-1.92,0-2.88c-1.76-0.28-4.04-0.04-6-0.12c0-1,0-2,0-3s0-2,0-3c0.96,0,1.92,0,2.88,0
			c0.279-0.761,0.041-2.039,0.12-3C47.059,6.07,49.059,6.07,51.059,6.07z"/>
		<path fill-rule="evenodd" clip-rule="evenodd" fill="#005A00" d="M51.059,6.07c2,0,4,0,6,0c0,0.96,0,1.92,0,2.88
			c0.761,0.279,2.039,0.041,3,0.12c0,0.96,0,1.92,0,2.88c0.761,0.279,2.039,0.041,3,0.12c0,3,0,6,0,9c-0.96,0-1.92,0-2.88,0
			c-0.28,2.76-0.04,6.04-0.12,9c-0.96,0-1.92,0-2.88,0c-0.279,0.761-0.041,2.039-0.12,3c-2,0-4,0-6,0c-1,0-2,0-3,0
			c0-0.96,0-1.92,0-2.88c-1.76-0.28-4.04-0.04-6-0.12c0-1,0-2,0-3c-1,0-2,0-3,0c0-1,0-2,0-3c0-4,0-8,0-12c1,0,2,0,3,0c0,1,0,2,0,3
			s0,2,0,3c1,0,2,0,3,0c0,0.96,0,1.92,0,2.88c1.76,0.28,4.04,0.04,6,0.12c0-1,0-2,0-3c0.96,0,1.92,0,2.88,0
			c0.279-0.761,0.041-2.039,0.12-3c0-2,0-4,0-6c-1,0-2,0-3,0C51.059,8.07,51.059,7.07,51.059,6.07z"/>
		<path fill-rule="evenodd" clip-rule="evenodd" fill="#CE5609" d="M48.059,33.07c0,2,0,4,0,6c0,1,0,2,0,3c1,0,2,0,3,0c0,1,0,2,0,3
			c-0.96,0-1.92,0-2.88,0c-0.279,0.722-0.041,1.959-0.12,2.88c0.761,0.279,2.039,0.041,3,0.12c0-1,0-2,0-3c1,0,2,0,3,0
			c0,0.96,0,1.92,0,2.88c0.761,0.279,2.039,0.041,3,0.12c0-2,0-4,0-6c0.96,0,1.92,0,2.88,0c0.279-0.761,0.041-2.039,0.12-3
			c-1,0-2,0-3,0c0,1,0,2,0,3c-1,0-2,0-3,0s-2,0-3,0c0-1,0-2,0-3c0-2,0-4,0-6c2,0,4,0,6,0c1,0,2,0,3,0c0,1,0,2,0,3c1,0,2,0,3,0
			c0,0.96,0,1.92,0,2.88c0.761,0.279,2.039,0.041,3,0.12c0,0.96,0,1.92,0,2.88c0.761,0.279,2.039,0.041,3,0.12c0,0.96,0,1.92,0,2.88
			c1.76,0.28,4.04,0.04,6,0.12c0,0.96,0,1.92,0,2.88c0.761,0.279,2.039,0.041,3,0.12c0,0.96,0,1.92,0,2.88
			c1.76,0.28,4.04,0.04,6,0.12c0,0.96,0,1.92,0,2.88c1.76,0.28,4.04,0.04,6,0.12c0,7,0,14,0,21c-1,0-2,0-3,0c0-1,0-2,0-3
			c-1,0-2,0-3,0c0-0.96,0-1.92,0-2.88c-0.761-0.279-2.039-0.041-3-0.12c0-0.96,0-1.92,0-2.88c-1.76-0.28-4.04-0.04-6-0.12
			c0-1,0-2,0-3c-1,0-2,0-3,0c0-1,0-2,0-3c-1,0-2,0-3,0c0-1,0-2,0-3c-1,0-2,0-3,0c0-0.96,0-1.92,0-2.88
			c-0.761-0.279-2.039-0.041-3-0.12c-1,0-2,0-3,0s-2,0-3,0c0-0.96,0-1.92,0-2.88c-0.761-0.279-2.039-0.041-3-0.12c0,1,0,2,0,3
			c-2,0-4,0-6,0c0-1,0-2,0-3c-1,0-2,0-3,0c0-2,0-4,0-6c-1,0-2,0-3,0c0-3,0-6,0-9c1,0,2,0,3,0c0-1,0-2,0-3
			C46.059,33.07,47.059,33.07,48.059,33.07z"/>
		<path fill-rule="evenodd" clip-rule="evenodd" fill="#870E00" d="M48.059,33.07c1,0,2,0,3,0c0,2,0,4,0,6c-1,0-2,0-3,0
			C48.059,37.07,48.059,35.07,48.059,33.07z"/>
		<path fill-rule="evenodd" clip-rule="evenodd" fill="#FFFFFF" d="M60.059,54.07c1,0,2,0,3,0c0,0.96,0,1.92,0,2.88
			c0.761,0.279,2.039,0.041,3,0.12c0,0.96,0,1.92,0,2.88c0.761,0.279,2.039,0.041,3,0.12c0,1,0,2,0,3c1,0,2,0,3,0c0,1,0,2,0,3
			c1,0,2,0,3,0c0,0.96,0,1.92,0,2.88c0.761,0.279,2.039,0.041,3,0.12c0,1,0,2,0,3c1,0,2,0,3,0c0,0.96,0,1.92,0,2.88
			c0.761,0.279,2.039,0.041,3,0.12c0,2,0,4,0,6c2,0,4,0,6,0c0,3,0,6,0,9c-6,0-12,0-18,0c0-2,0-4,0-6c-1,0-2,0-3,0c0-2,0-4,0-6
			c-1,0-2,0-3,0c0-3,0-6,0-9c-1,0-2,0-3,0c0-3,0-6,0-9c-1,0-2,0-3,0C60.059,58.07,60.059,56.07,60.059,54.07z"/>
		<path fill-rule="evenodd" clip-rule="evenodd" fill="#FC7E69" d="M36.059,81.07c0,1,0,2,0,3c-0.96,0-1.92,0-2.88,0
			c-0.279,0.761-0.041,2.039-0.12,3c-1,0-2,0-3,0c0-0.96,0-1.92,0-2.88c-0.761-0.279-2.039-0.041-3-0.12c0-4,0-8,0-12
			c0.96,0,1.92,0,2.88,0c0.279-0.761,0.041-2.039,0.12-3c1,0,2,0,3,0c0,4,0,8,0,12C34.059,81.07,35.059,81.07,36.059,81.07z"/>
		<path fill-rule="evenodd" clip-rule="evenodd" fill="#FC7E69" d="M39.059,81.07c0-2,0-4,0-6c2,0,4,0,6,0c0,1,0,2,0,3c1,0,2,0,3,0
			c0,3,0,6,0,9c-0.96,0-1.92,0-2.88,0c-0.279,0.761-0.041,2.039-0.12,3c-2,0-4,0-6,0c0-2,0-4,0-6
			C39.059,83.07,39.059,82.07,39.059,81.07z"/>
		<path fill-rule="evenodd" clip-rule="evenodd" d="M36.059,81.07c1,0,2,0,3,0c0,1,0,2,0,3c-1,0-2,0-3,0
			C36.059,83.07,36.059,82.07,36.059,81.07z"/>
		<path fill-rule="evenodd" clip-rule="evenodd" d="M45.059,51.07c1,0,2,0,3,0c0,1,0,2,0,3c2,0,4,0,6,0c0-1,0-2,0-3
			c0.961,0.079,2.239-0.159,3,0.12c0,0.96,0,1.92,0,2.88c1,0,2,0,3,0c0,2,0,4,0,6c1,0,2,0,3,0c0,3,0,6,0,9c1,0,2,0,3,0c0,3,0,6,0,9
			c1,0,2,0,3,0c0,2,0,4,0,6c1,0,2,0,3,0c0,2,0,4,0,6c-1,0-2,0-3,0c0-1,0-2,0-3c-1,0-2,0-3,0c0-1,0-2,0-3c-1,0-2,0-3,0c0-1,0-2,0-3
			c-1,0-2,0-3,0c0-1,0-2,0-3c-1,0-2,0-3,0c0-2,0-4,0-6c-1,0-2,0-3,0c0-0.96,0-1.92,0-2.88c-0.721-0.279-1.959-0.041-2.88-0.12
			c-0.279,0.761-0.041,2.039-0.12,3c1,0,2,0,3,0c0,2,0,4,0,6c1,0,2,0,3,0c0,2,0,4,0,6c1,0,2,0,3,0c0,2,0,4,0,6c-2,0-4,0-6,0
			c0-1,0-2,0-3c-1,0-2,0-3,0c0-3,0-6,0-9c-1,0-2,0-3,0c0-2,0-4,0-6c-1,0-2,0-3,0c0-3.96,0-7.92,0-11.88
			c-0.761-0.279-2.039-0.041-3-0.12c0,1,0,2,0,3c-1,0-2,0-3,0c0-1,0-2,0-3c0.96,0,1.92,0,2.88,0c0.28-1.761,0.041-4.04,0.12-6
			c0.96,0,1.92,0,2.88,0C45.218,53.31,44.98,52.031,45.059,51.07z"/>
		<path fill-rule="evenodd" clip-rule="evenodd" fill="#FFFFFF" d="M90.059,54.07c-1.96-0.08-4.24,0.16-6-0.12c0-0.96,0-1.92,0-2.88
			c-1.96-0.08-4.24,0.16-6-0.12c0-0.96,0-1.92,0-2.88c-0.961-0.079-2.239,0.159-3-0.12c0-0.96,0-1.92,0-2.88
			c-1.96-0.08-4.24,0.16-6-0.12c0-0.96,0-1.92,0-2.88c-0.961-0.079-2.239,0.159-3-0.12c0-0.96,0-1.92,0-2.88
			c-0.961-0.079-2.239,0.159-3-0.12c0-0.96,0-1.92,0-2.88c-1,0-2,0-3,0c0-1,0-2,0-3c-1,0-2,0-3,0c0.079-0.961-0.159-2.239,0.12-3
			c0.96,0,1.92,0,2.88,0c0.08-2.96-0.16-6.24,0.12-9c0.96,0,1.92,0,2.88,0c0-3,0-6,0-9c-0.961-0.079-2.239,0.159-3-0.12
			c0-0.96,0-1.92,0-2.88c-0.961-0.079-2.239,0.159-3-0.12c0-0.96,0-1.92,0-2.88c-2,0-4,0-6,0s-4,0-6,0
			c-0.079,0.961,0.159,2.239-0.12,3c-0.96,0-1.92,0-2.88,0c0,1,0,2,0,3c-1,0-2,0-3,0c0-1,0-2,0-3c-1,0-2,0-3,0c0-1,0-2,0-3
			c-2,0-4,0-6,0c-0.08,1.96,0.16,4.239-0.12,6c-0.96,0-1.92,0-2.88,0c0,1,0,2,0,3c1,0,2,0,3,0c0,1,0,2,0,3c2,0,4,0,6,0
			c-0.079,0.961,0.159,2.239-0.12,3c-0.96,0-1.92,0-2.88,0c0,2,0,4,0,6c1,0,2,0,3,0c0.079-0.961-0.159-2.239,0.12-3
			c0.96,0,1.92,0,2.88,0c0,1,0,2,0,3c1,0,2,0,3,0c0,1,0,2,0,3c1.96,0.08,4.24-0.16,6,0.12c0,0.96,0,1.92,0,2.88c-1,0-2,0-3,0
			c0,1,0,2,0,3c-1,0-2,0-3,0c0,3,0,6,0,9c1,0,2,0,3,0c0,2,0,4,0,6c-0.079,0.961,0.159,2.239-0.12,3c-0.96,0-1.92,0-2.88,0
			c-0.08,1.96,0.16,4.239-0.12,6c-0.96,0-1.92,0-2.88,0c0,1,0,2,0,3c1,0,2,0,3,0c0-1,0-2,0-3c0.961,0.079,2.239-0.159,3,0.12
			c0,3.96,0,7.92,0,11.88c1,0,2,0,3,0c0,2,0,4,0,6c1,0,2,0,3,0c0,3,0,6,0,9c1,0,2,0,3,0c0,1,0,2,0,3c-3,0-6,0-9,0
			c0.079-0.961-0.159-2.239,0.12-3c0.96,0,1.92,0,2.88,0c0-3,0-6,0-9c-1,0-2,0-3,0c0-1,0-2,0-3c-2,0-4,0-6,0c0,2,0,4,0,6
			c-1,0-2,0-3,0s-2,0-3,0c0-4,0-8,0-12c-1,0-2,0-3,0c-0.079,0.961,0.159,2.239-0.12,3c-0.96,0-1.92,0-2.88,0c0,4,0,8,0,12
			c0.961,0.079,2.239-0.159,3,0.12c0,0.96,0,1.92,0,2.88c1,0,2,0,3,0c0.079-0.961-0.159-2.239,0.12-3c0.96,0,1.92,0,2.88,0
			c1,0,2,0,3,0c0,2,0,4,0,6c-13,0-26,0-39,0c0-30.001,0-59.999,0-90c30,0,60,0,90,0C90.059,18.07,90.059,36.07,90.059,54.07z"/>
		<path fill-rule="evenodd" clip-rule="evenodd" fill="#FFFFFF" d="M54.059,15.07c-0.079,0.961,0.159,2.239-0.12,3
			c-0.96,0-1.92,0-2.88,0c0,1,0,2,0,3c-1.96-0.08-4.24,0.16-6-0.12c0-0.96,0-1.92,0-2.88c-1,0-2,0-3,0c0-1,0-2,0-3
			c1.96,0.08,4.24-0.16,6,0.12c0,0.96,0,1.92,0,2.88c1,0,2,0,3,0c0-1,0-2,0-3C52.059,15.07,53.059,15.07,54.059,15.07z"/>
		<path fill-rule="evenodd" clip-rule="evenodd" d="M48.059,39.07c1,0,2,0,3,0c0,1,0,2,0,3c1,0,2,0,3,0c0,1,0,2,0,3c-1,0-2,0-3,0
			c0,1,0,2,0,3c-0.961-0.079-2.239,0.159-3-0.12c0.079-0.921-0.159-2.158,0.12-2.88c0.96,0,1.92,0,2.88,0c0-1,0-2,0-3c-1,0-2,0-3,0
			C48.059,41.07,48.059,40.07,48.059,39.07z"/>
		<path fill-rule="evenodd" clip-rule="evenodd" fill="#870E00" d="M54.059,42.07c1,0,2,0,3,0c0-1,0-2,0-3c1,0,2,0,3,0
			c-0.079,0.961,0.159,2.239-0.12,3c-0.96,0-1.92,0-2.88,0c0,2,0,4,0,6c-0.961-0.079-2.239,0.159-3-0.12c0-0.96,0-1.92,0-2.88
			C54.059,44.07,54.059,43.07,54.059,42.07z"/>
		<path fill-rule="evenodd" clip-rule="evenodd" fill="#870E00" d="M63.059,54.07c0.961,0.079,2.239-0.159,3,0.12
			c0,0.96,0,1.92,0,2.88c1,0,2,0,3,0c0,1,0,2,0,3c1,0,2,0,3,0c0,1,0,2,0,3c1,0,2,0,3,0c0,1,0,2,0,3c1.96,0.08,4.24-0.16,6,0.12
			c0,0.96,0,1.92,0,2.88c0.961,0.079,2.239-0.159,3,0.12c0,0.96,0,1.92,0,2.88c1,0,2,0,3,0c0,1,0,2,0,3c1,0,2,0,3,0c0,2,0,4,0,6
			c-2,0-4,0-6,0c0-2,0-4,0-6c-0.961-0.079-2.239,0.159-3-0.12c0-0.96,0-1.92,0-2.88c-1,0-2,0-3,0c0-1,0-2,0-3
			c-0.961-0.079-2.239,0.159-3-0.12c0-0.96,0-1.92,0-2.88c-1,0-2,0-3,0c0-1,0-2,0-3c-1,0-2,0-3,0c0-1,0-2,0-3
			c-0.961-0.079-2.239,0.159-3-0.12c0-0.96,0-1.92,0-2.88c-0.961-0.079-2.239,0.159-3-0.12C63.059,55.99,63.059,55.03,63.059,54.07z
			"/>
		<path fill-rule="evenodd" clip-rule="evenodd" fill="#FFFFFF" d="M60.059,90.07c0-2,0-4,0-6c-1,0-2,0-3,0c0-2,0-4,0-6
			c-1,0-2,0-3,0c0-2,0-4,0-6c-1,0-2,0-3,0c0.079-0.961-0.159-2.239,0.12-3c0.921,0.079,2.159-0.159,2.88,0.12c0,0.96,0,1.92,0,2.88
			c1,0,2,0,3,0c0,2,0,4,0,6c1,0,2,0,3,0c0,1,0,2,0,3c1,0,2,0,3,0c0,1,0,2,0,3c1,0,2,0,3,0c0,1,0,2,0,3c1,0,2,0,3,0c0,1,0,2,0,3
			C66.059,90.07,63.059,90.07,60.059,90.07z"/>
	</g>
</g>
</svg>
