<?xml version="1.0" encoding="utf-8"?>
<!-- Generator: Adobe Illustrator 14.0.0, SVG Export Plug-In . SVG Version: 6.00 Build 43363)  -->
<!DOCTYPE svg PUBLIC "-//W3C//DTD SVG 1.1//EN" "http://www.w3.org/Graphics/SVG/1.1/DTD/svg11.dtd">
<svg version="1.1" id="Layer_1" xmlns="http://www.w3.org/2000/svg" xmlns:xlink="http://www.w3.org/1999/xlink" x="0px" y="0px"
	 width="90.119px" height="90.141px" viewBox="0 0 90.119 90.141" enable-background="new 0 0 90.119 90.141" xml:space="preserve">
<g>
	<g>
		<path fill-rule="evenodd" clip-rule="evenodd" fill="#FFFFFF" d="M0.179,0.141c29.959,0,59.921,0,89.88,0c0,30.001,0,59.999,0,90
			c-30,0-60,0-90,0c0-29.879,0-59.761,0-89.64C0.049,0.33,0.039,0.161,0.179,0.141z M27.059,21.141c-1,0-2,0-3,0
			c-0.079,0.961,0.159,2.239-0.12,3c-0.96,0-1.92,0-2.88,0c0,1,0,2,0,3c-1,0-2,0-3,0c0,3,0,6,0,9c1,0,2,0,3,0
			c-0.08,2.96,0.16,6.24-0.12,9c-0.96,0-1.92,0-2.88,0c0,2,0,4,0,6c0.961,0.079,2.239-0.159,3,0.12c0,0.96,0,1.92,0,2.88
			c1,0,2,0,3,0c-0.079,0.961,0.159,2.239-0.12,3c-0.96,0-1.92,0-2.88,0c0,1,0,2,0,3c-1,0-2,0-3,0c0,1,0,2,0,3c1,0,2,0,3,0
			c0,1,0,2,0,3c1,0,2,0,3,0c0,1,0,2,0,3c1.96,0.08,4.24-0.16,6,0.12c0,0.96,0,1.92,0,2.88c2,0,4,0,6,0c0-1,0-2,0-3
			c0.961,0.079,2.239-0.159,3,0.12c0,0.96,0,1.92,0,2.88c1,0,2,0,3,0c0,1,0,2,0,3c4,0,8,0,12,0c0.079-0.961-0.159-2.239,0.12-3
			c0.96,0,1.92,0,2.88,0c0.079-0.961-0.159-2.239,0.12-3c0.96,0,1.92,0,2.88,0c0-1,0-2,0-3c2,0,4,0,6,0
			c0.079-0.961-0.159-2.239,0.12-3c0.96,0,1.92,0,2.88,0c0-1,0-2,0-3c1,0,2,0,3,0c0-2,0-4,0-6c-2.96-0.08-6.24,0.16-9-0.12
			c0.079-0.921-0.159-2.158,0.12-2.88c0.96,0,1.92,0,2.88,0c0.079-0.961-0.159-2.239,0.12-3c0.96,0,1.92,0,2.88,0c0-2,0-4,0-6
			c-1,0-2,0-3,0c0-2,0-4,0-6c-0.961-0.079-2.239,0.159-3-0.12c0-0.96,0-1.92,0-2.88c-1,0-2,0-3,0c0-1,0-2,0-3
			c-0.961-0.079-2.239,0.159-3-0.12c0-0.96,0-1.92,0-2.88c-1,0-2,0-3,0c0.079-0.961-0.159-2.239,0.12-3c0.96,0,1.92,0,2.88,0
			c0.079-0.961-0.159-2.239,0.12-3c0.96,0,1.92,0,2.88,0c0-1,0-2,0-3c-1,0-2,0-3,0c0,1,0,2,0,3c-1.96-0.08-4.24,0.16-6-0.12
			c0.079-0.921-0.159-2.158,0.12-2.88c0.96,0,1.92,0,2.88,0c0-2,0-4,0-6c-1,0-2,0-3,0c0,2,0,4,0,6c-0.961-0.079-2.239,0.159-3-0.12
			c0-0.96,0-1.92,0-2.88c-0.961-0.079-2.239,0.159-3-0.12c0-0.96,0-1.92,0-2.88c-1,0-2,0-3,0c0,2,0,4,0,6c1,0,2,0,3,0
			c-0.079,0.961,0.159,2.239-0.12,3c-2.92-0.08-6.16,0.16-8.88-0.12c0-0.96,0-1.92,0-2.88c-3,0-6,0-9,0
			C27.059,19.141,27.059,20.141,27.059,21.141z"/>
		<path fill-rule="evenodd" clip-rule="evenodd" fill="#EFEF49" d="M24.059,36.141c-1,0-2,0-3,0c0-3,0-6,0-9c0.96,0,1.92,0,2.88,0
			c0.279-0.761,0.041-2.039,0.12-3c0.96,0,1.92,0,2.88,0c0.279-0.761,0.041-2.039,0.12-3c3,0,6,0,9,0c0,1,0,2,0,3c-2,0-4,0-6,0
			c0,1,0,2,0,3c-0.96,0-1.92,0-2.88,0c-0.279,0.761-0.041,2.039-0.12,3c0,1,0,2,0,3c-0.96,0-1.92,0-2.88,0
			C23.9,33.901,24.138,35.18,24.059,36.141z"/>
		<path fill-rule="evenodd" clip-rule="evenodd" fill="#EFEF49" d="M30.059,30.141c0-1,0-2,0-3c2,0,4,0,6,0c0-1,0-2,0-3
			c4,0,8,0,12,0c0,0.96,0,1.92,0,2.88c1.76,0.28,4.04,0.04,6,0.12c0,0.96,0,1.92,0,2.88c0.761,0.279,2.039,0.041,3,0.12c0,1,0,2,0,3
			c-0.96,0-1.92,0-2.88,0c-0.279,0.761-0.041,2.039-0.12,3c-0.96,0-1.92,0-2.88,0c-0.28,1.721-0.041,3.96-0.12,5.88
			c0.761,0.279,2.039,0.041,3,0.12c0-2,0-4,0-6c1,0,2,0,3,0c0-1,0-2,0-3c1,0,2,0,3,0c0,1,0,2,0,3c1,0,2,0,3,0c0,2,0,4,0,6
			c1,0,2,0,3,0c0,2,0,4,0,6c-0.96,0-1.92,0-2.88,0c-0.279,0.761-0.041,2.039-0.12,3c-0.96,0-1.92,0-2.88,0
			c-0.28,2.76-0.04,6.04-0.12,9c-1,0-2,0-3,0c0,1,0,2,0,3c-2,0-4,0-6,0c0,1,0,2,0,3c-5,0-10,0-15,0c0-0.96,0-1.92,0-2.88
			c-1.76-0.28-4.04-0.04-6-0.12c0-1,0-2,0-3c-1,0-2,0-3,0c0-1,0-2,0-3c3,0,6,0,9,0c0-1,0-2,0-3c0.96,0,1.92,0,2.88,0
			c0.279-0.761,0.041-2.039,0.12-3c4,0,8,0,12,0c0-1,0-2,0-3c0.96,0,1.92,0,2.88,0c0.279-0.722,0.041-1.959,0.12-2.88
			c-0.761-0.279-2.039-0.041-3-0.12c0,1,0,2,0,3c-1,0-2,0-3,0c0-0.96,0-1.92,0-2.88c-0.761-0.279-2.039-0.041-3-0.12c0-1,0-2,0-3
			c0.96,0,1.92,0,2.88,0c0.28-2.76,0.04-6.04,0.12-9c-2.96,0-5.92,0-8.88,0c-0.28,1.761-0.041,4.04-0.12,6c-1,0-2,0-3,0c0-1,0-2,0-3
			c-1,0-2,0-3,0c0-2,0-4,0-6C32.059,30.141,31.059,30.141,30.059,30.141z"/>
		<path fill-rule="evenodd" clip-rule="evenodd" d="M27.059,33.141c1,0,2,0,3,0c0,1,0,2,0,3c-1,0-2,0-3,0
			C27.059,35.141,27.059,34.141,27.059,33.141z"/>
		<path fill-rule="evenodd" clip-rule="evenodd" fill="#FFFFFF" d="M45.059,42.141c-1,0-2,0-3,0c0-1,0-2,0-3c0.96,0,1.92,0,2.88,0
			c0.279-0.761,0.041-2.039,0.12-3c-1,0-2,0-3,0c0,1,0,2,0,3c-1,0-2,0-3,0c0.08-1.96-0.16-4.239,0.12-6c2.96,0,5.92,0,8.88,0
			c-0.08,2.96,0.16,6.24-0.12,9C46.979,42.141,46.019,42.141,45.059,42.141z"/>
		<path fill-rule="evenodd" clip-rule="evenodd" fill="#EFEF49" d="M24.059,39.141c1,0,2,0,3,0c0,1,0,2,0,3c-1,0-2,0-3,0
			C24.059,41.141,24.059,40.141,24.059,39.141z"/>
		<path fill-rule="evenodd" clip-rule="evenodd" fill="#F2CE88" d="M30.059,39.141c2,0,4,0,6,0c0,1,0,2,0,3c-0.96,0-1.92,0-2.88,0
			c-0.279,0.761-0.041,2.039-0.12,3c1,0,2,0,3,0c0-1,0-2,0-3c2,0,4,0,6,0c0,1,0,2,0,3c1,0,2,0,3,0c0,1,0,2,0,3c-2,0-4,0-6,0
			c0,1,0,2,0,3c-1,0-2,0-3,0c0,1,0,2,0,3c-4,0-8,0-12,0c0-1,0-2,0-3c-1,0-2,0-3,0c0-2,0-4,0-6c2,0,4,0,6,0c0-1,0-2,0-3
			c0.96,0,1.92,0,2.88,0C30.218,41.38,29.98,40.102,30.059,39.141z"/>
		<path fill-rule="evenodd" clip-rule="evenodd" fill="#EFEF49" d="M69.059,60.141c-1,0-2,0-3,0c0,1,0,2,0,3c-2,0-4,0-6,0
			c0-1,0-2,0-3c0.96,0,1.92,0,2.88,0c0.279-0.761,0.041-2.039,0.12-3c2,0,4,0,6,0C69.059,58.141,69.059,59.141,69.059,60.141z"/>
		<path fill-rule="evenodd" clip-rule="evenodd" fill="#F2CE88" d="M21.059,60.141c2,0,4,0,6,0c0,1,0,2,0,3c1,0,2,0,3,0c0,1,0,2,0,3
			c-2,0-4,0-6,0c0-1,0-2,0-3c-1,0-2,0-3,0C21.059,62.141,21.059,61.141,21.059,60.141z"/>
		<path fill-rule="evenodd" clip-rule="evenodd" fill="#F2CE88" d="M36.059,66.141c0,1,0,2,0,3c-2,0-4,0-6,0c0-1,0-2,0-3
			C32.059,66.141,34.059,66.141,36.059,66.141z"/>
		<path fill-rule="evenodd" clip-rule="evenodd" fill="#F2CE88" d="M57.059,66.141c0,1,0,2,0,3c-1,0-2,0-3,0c0,1,0,2,0,3
			c-4,0-8,0-12,0c0-1,0-2,0-3c3,0,6,0,9,0c0-1,0-2,0-3C53.059,66.141,55.059,66.141,57.059,66.141z"/>
		<path fill-rule="evenodd" clip-rule="evenodd" d="M27.059,18.141c3,0,6,0,9,0c0,0.96,0,1.92,0,2.88c2.72,0.28,5.96,0.04,8.88,0.12
			c0.279-0.761,0.041-2.039,0.12-3c-1,0-2,0-3,0c0-2,0-4,0-6c1,0,2,0,3,0c0,0.96,0,1.92,0,2.88c0.761,0.279,2.039,0.041,3,0.12
			c0,0.96,0,1.92,0,2.88c0.761,0.279,2.039,0.041,3,0.12c0-2,0-4,0-6c1,0,2,0,3,0c0,2,0,4,0,6c-0.96,0-1.92,0-2.88,0
			c-0.279,0.722-0.041,1.959-0.12,2.88c1.76,0.28,4.04,0.04,6,0.12c0-1,0-2,0-3c1,0,2,0,3,0c0,1,0,2,0,3c-0.96,0-1.92,0-2.88,0
			c-0.279,0.761-0.041,2.039-0.12,3c-0.96,0-1.92,0-2.88,0c-0.279,0.761-0.041,2.039-0.12,3c1,0,2,0,3,0c0,0.96,0,1.92,0,2.88
			c0.761,0.279,2.039,0.041,3,0.12c0,1,0,2,0,3c1,0,2,0,3,0c0,0.96,0,1.92,0,2.88c0.761,0.279,2.039,0.041,3,0.12c0,2,0,4,0,6
			c1,0,2,0,3,0c0,2,0,4,0,6c-0.96,0-1.92,0-2.88,0c-0.279,0.761-0.041,2.039-0.12,3c-0.96,0-1.92,0-2.88,0
			c-0.279,0.722-0.041,1.959-0.12,2.88c2.76,0.28,6.04,0.04,9,0.12c0,2,0,4,0,6c-1,0-2,0-3,0c0,1,0,2,0,3c-0.96,0-1.92,0-2.88,0
			c-0.279,0.761-0.041,2.039-0.12,3c-2,0-4,0-6,0c0,1,0,2,0,3c-0.96,0-1.92,0-2.88,0c-0.279,0.761-0.041,2.039-0.12,3
			c-0.96,0-1.92,0-2.88,0c-0.279,0.761-0.041,2.039-0.12,3c-4,0-8,0-12,0c0-1,0-2,0-3c-1,0-2,0-3,0c0-0.96,0-1.92,0-2.88
			c-0.761-0.279-2.039-0.041-3-0.12c0,1,0,2,0,3c-2,0-4,0-6,0c0-0.96,0-1.92,0-2.88c-1.76-0.28-4.04-0.04-6-0.12c0-1,0-2,0-3
			c-1,0-2,0-3,0c0-1,0-2,0-3c-1,0-2,0-3,0c0-1,0-2,0-3c1,0,2,0,3,0c0-1,0-2,0-3c0.96,0,1.92,0,2.88,0
			c0.279-0.761,0.041-2.039,0.12-3c-1,0-2,0-3,0c0-0.96,0-1.92,0-2.88c-0.761-0.279-2.039-0.041-3-0.12c0-2,0-4,0-6
			c0.96,0,1.92,0,2.88,0c0.28-2.76,0.04-6.04,0.12-9c-1,0-2,0-3,0c0-3,0-6,0-9c1,0,2,0,3,0c0-1,0-2,0-3c0.96,0,1.92,0,2.88,0
			c0.279-0.761,0.041-2.039,0.12-3c1,0,2,0,3,0C27.059,20.141,27.059,19.141,27.059,18.141z M27.059,30.141
			c0.079-0.961-0.159-2.239,0.12-3c0.96,0,1.92,0,2.88,0c0-1,0-2,0-3c2,0,4,0,6,0c0-1,0-2,0-3c-3,0-6,0-9,0
			c-0.079,0.961,0.159,2.239-0.12,3c-0.96,0-1.92,0-2.88,0c-0.079,0.961,0.159,2.239-0.12,3c-0.96,0-1.92,0-2.88,0c0,3,0,6,0,9
			c1,0,2,0,3,0c0,1,0,2,0,3s0,2,0,3c1,0,2,0,3,0c0-1,0-2,0-3c1,0,2,0,3,0c0.079-0.961-0.159-2.239,0.12-3c0.96,0,1.92,0,2.88,0
			c1,0,2,0,3,0c0,1,0,2,0,3c1,0,2,0,3,0s2,0,3,0c0-1,0-2,0-3c1,0,2,0,3,0c-0.079,0.961,0.159,2.239-0.12,3c-0.96,0-1.92,0-2.88,0
			c0,1,0,2,0,3c1,0,2,0,3,0c0,1,0,2,0,3c0.961,0.079,2.239-0.159,3,0.12c0,0.96,0,1.92,0,2.88c1,0,2,0,3,0c0-1,0-2,0-3
			c0.961,0.079,2.239-0.159,3,0.12c-0.079,0.921,0.159,2.158-0.12,2.88c-0.96,0-1.92,0-2.88,0c0,1,0,2,0,3c-4,0-8,0-12,0
			c-0.079,0.961,0.159,2.239-0.12,3c-0.96,0-1.92,0-2.88,0c0,1,0,2,0,3c-3,0-6,0-9,0c0,1,0,2,0,3c1,0,2,0,3,0c0,1,0,2,0,3
			c1.96,0.08,4.24-0.16,6,0.12c0,0.96,0,1.92,0,2.88c5,0,10,0,15,0c0-1,0-2,0-3c2,0,4,0,6,0c0-1,0-2,0-3c1,0,2,0,3,0
			c0.08-2.96-0.16-6.24,0.12-9c0.96,0,1.92,0,2.88,0c0.079-0.961-0.159-2.239,0.12-3c0.96,0,1.92,0,2.88,0c0-2,0-4,0-6c-1,0-2,0-3,0
			c0-2,0-4,0-6c-1,0-2,0-3,0c0-1,0-2,0-3c-1,0-2,0-3,0c0,1,0,2,0,3c-1,0-2,0-3,0c0,2,0,4,0,6c-0.961-0.079-2.239,0.159-3-0.12
			c0.08-1.92-0.16-4.159,0.12-5.88c0.96,0,1.92,0,2.88,0c0.079-0.961-0.159-2.239,0.12-3c0.96,0,1.92,0,2.88,0c0-1,0-2,0-3
			c-0.961-0.079-2.239,0.159-3-0.12c0-0.96,0-1.92,0-2.88c-1.96-0.08-4.24,0.16-6-0.12c0-0.96,0-1.92,0-2.88c-4,0-8,0-12,0
			c0,1,0,2,0,3c-2,0-4,0-6,0c0,1,0,2,0,3C29.059,30.141,28.059,30.141,27.059,30.141z M29.939,42.141c-0.96,0-1.92,0-2.88,0
			c0,1,0,2,0,3c-2,0-4,0-6,0c0,2,0,4,0,6c1,0,2,0,3,0c0,1,0,2,0,3c4,0,8,0,12,0c0-1,0-2,0-3c1,0,2,0,3,0c0-1,0-2,0-3c2,0,4,0,6,0
			c0-1,0-2,0-3c-1,0-2,0-3,0c0-1,0-2,0-3c-2,0-4,0-6,0c0,1,0,2,0,3c-1,0-2,0-3,0c0.079-0.961-0.159-2.239,0.12-3
			c0.96,0,1.92,0,2.88,0c0-1,0-2,0-3c-2,0-4,0-6,0C29.98,40.102,30.218,41.38,29.939,42.141z M21.059,63.141c1,0,2,0,3,0
			c0,1,0,2,0,3c2,0,4,0,6,0c0-1,0-2,0-3c-1,0-2,0-3,0c0-1,0-2,0-3c-2,0-4,0-6,0C21.059,61.141,21.059,62.141,21.059,63.141z
			 M30.059,66.141c0,1,0,2,0,3c2,0,4,0,6,0c0-1,0-2,0-3C34.059,66.141,32.059,66.141,30.059,66.141z M51.059,66.141c0,1,0,2,0,3
			c-3,0-6,0-9,0c0,1,0,2,0,3c4,0,8,0,12,0c0-1,0-2,0-3c1,0,2,0,3,0c0-1,0-2,0-3C55.059,66.141,53.059,66.141,51.059,66.141z
			 M69.059,57.141c-2,0-4,0-6,0c-0.079,0.961,0.159,2.239-0.12,3c-0.96,0-1.92,0-2.88,0c0,1,0,2,0,3c2,0,4,0,6,0c0-1,0-2,0-3
			c1,0,2,0,3,0C69.059,59.141,69.059,58.141,69.059,57.141z"/>
		<path fill-rule="evenodd" clip-rule="evenodd" fill="#FFFFFF" d="M27.059,30.141c1,0,2,0,3,0s2,0,3,0c0,2,0,4,0,6
			c-0.96,0-1.92,0-2.88,0c-0.279,0.761-0.041,2.039-0.12,3c-1,0-2,0-3,0s-2,0-3,0c0-1,0-2,0-3c0.079-0.961-0.159-2.239,0.12-3
			c0.96,0,1.92,0,2.88,0C27.059,32.141,27.059,31.141,27.059,30.141z M27.059,36.141c1,0,2,0,3,0c0-1,0-2,0-3c-1,0-2,0-3,0
			C27.059,34.141,27.059,35.141,27.059,36.141z"/>
	</g>
</g>
</svg>
