<?xml version="1.0" encoding="utf-8"?>
<!-- Generator: Adobe Illustrator 14.0.0, SVG Export Plug-In . SVG Version: 6.00 Build 43363)  -->
<!DOCTYPE svg PUBLIC "-//W3C//DTD SVG 1.1//EN" "http://www.w3.org/Graphics/SVG/1.1/DTD/svg11.dtd">
<svg version="1.1" id="Layer_1" xmlns="http://www.w3.org/2000/svg" xmlns:xlink="http://www.w3.org/1999/xlink" x="0px" y="0px"
	 width="90.119px" height="90.141px" viewBox="0 0 90.119 90.141" enable-background="new 0 0 90.119 90.141" xml:space="preserve">
<g>
	<g>
		<path fill-rule="evenodd" clip-rule="evenodd" fill="#FFFFFF" d="M57.059,90.07c0-1,0-2,0-3c1,0,2,0,3,0c0-2.96,0-5.92,0-8.88
			c-0.761-0.279-2.039-0.041-3-0.12c0-1,0-2,0-3c-3,0-6,0-9,0c0-4,0-8,0-12c1,0,2,0,3,0c0-1,0-2,0-3c2.96,0,5.92,0,8.88,0
			c0.279-0.761,0.041-2.039,0.12-3c5.96,0,11.92,0,17.88,0c0.279-0.761,0.041-2.039,0.12-3c-3,0-6,0-9,0c0-2,0-4,0-6
			c0.96,0,1.92,0,2.88,0c0.28-5.72,0.04-11.96,0.12-17.88c-0.761-0.279-2.039-0.041-3-0.12c0-2.96,0-5.92,0-8.88
			c-0.761-0.279-2.039-0.041-3-0.12c0-1,0-2,0-3c-1,0-2,0-3,0c0-1,0-2,0-3c-3,0-6,0-9,0c0-1,0-2,0-3c-5.96,0-11.92,0-17.88,0
			c-0.279,0.761-0.041,2.039-0.12,3c-2,0-4,0-6,0c0,1,0,2,0,3c-1.96,0-3.92,0-5.88,0c-0.279,0.761-0.041,2.039-0.12,3
			c-0.96,0-1.92,0-2.88,0c-0.28,2.76-0.04,6.04-0.12,9c-1,0-2,0-3,0c0,5.96,0,11.92,0,17.88c0.761,0.279,2.039,0.041,3,0.12
			c0,2,0,4,0,6c-2.96,0-5.92,0-8.88,0c-0.279,0.761-0.041,2.039-0.12,3c6,0,12,0,18,0c0,1,0,2,0,3c3,0,6,0,9,0c0,0.96,0,1.92,0,2.88
			c0.761,0.279,2.039,0.041,3,0.12c0,4,0,8,0,12c-2.96,0-5.92,0-8.88,0c-0.279,0.761-0.041,2.039-0.12,3c-0.96,0-1.92,0-2.88,0
			c-0.279,0.761-0.041,2.039-0.12,3c-1,0-2,0-3,0c0-0.96,0-1.92,0-2.88c-0.761-0.279-2.039-0.041-3-0.12c0-0.96,0-1.92,0-2.88
			c-0.761-0.279-2.039-0.041-3-0.12c0,2.96,0,5.92,0,8.88c0.761,0.279,2.039,0.041,3,0.12c0,0.96,0,1.92,0,2.88
			c0.761,0.279,2.039,0.041,3,0.12c0,1,0,2,0,3c-9,0-18,0-27,0c0-30.001,0-59.999,0-90c30,0,60,0,90,0c0,30.001,0,59.999,0,90
			C79.059,90.07,68.059,90.07,57.059,90.07z"/>
		<path fill-rule="evenodd" clip-rule="evenodd" fill="#FEF94F" d="M69.059,54.07c-2,0-4,0-6,0c0-5.96,0-11.92,0-17.88
			c-2.76-0.28-6.04-0.04-9-0.12c0,6,0,12,0,18c-5,0-10,0-15,0c0-6,0-12,0-18c-2.96,0-5.92,0-8.88,0c-0.28,5.76-0.04,12.04-0.12,18
			c-3,0-6,0-9,0c0-2,0-4,0-6c-0.961-0.079-2.239,0.159-3-0.12c0-5.96,0-11.92,0-17.88c1,0,2,0,3,0c0.08-2.96-0.16-6.24,0.12-9
			c0.96,0,1.92,0,2.88,0c0.079-0.961-0.159-2.239,0.12-3c1.96,0,3.92,0,5.88,0c0-1,0-2,0-3c2,0,4,0,6,0
			c0.079-0.961-0.159-2.239,0.12-3c5.96,0,11.92,0,17.88,0c0,1,0,2,0,3c3,0,6,0,9,0c0,1,0,2,0,3c1,0,2,0,3,0c0,1,0,2,0,3
			c0.961,0.079,2.239-0.159,3,0.12c0,2.96,0,5.92,0,8.88c0.961,0.079,2.239-0.159,3,0.12c-0.08,5.92,0.16,12.16-0.12,17.88
			c-0.96,0-1.92,0-2.88,0C69.059,50.07,69.059,52.07,69.059,54.07z"/>
		<path fill-rule="evenodd" clip-rule="evenodd" fill="#FFFFFF" d="M39.059,54.07c-3,0-6,0-9,0c0.08-5.96-0.16-12.24,0.12-18
			c2.96,0,5.92,0,8.88,0C39.059,42.07,39.059,48.07,39.059,54.07z M33.059,48.07c1,0,2,0,3,0c0-1,0-2,0-3c-1,0-2,0-3,0
			C33.059,46.07,33.059,47.07,33.059,48.07z"/>
		<path fill-rule="evenodd" clip-rule="evenodd" fill="#FFFFFF" d="M63.059,54.07c-3,0-6,0-9,0c0-6,0-12,0-18
			c2.96,0.08,6.24-0.16,9,0.12C63.059,42.15,63.059,48.11,63.059,54.07z M57.059,48.07c1,0,2,0,3,0c0-1,0-2,0-3c-1,0-2,0-3,0
			C57.059,46.07,57.059,47.07,57.059,48.07z"/>
		<path fill-rule="evenodd" clip-rule="evenodd" d="M33.059,45.07c1,0,2,0,3,0c0,1,0,2,0,3c-1,0-2,0-3,0
			C33.059,47.07,33.059,46.07,33.059,45.07z"/>
		<path fill-rule="evenodd" clip-rule="evenodd" d="M57.059,45.07c1,0,2,0,3,0c0,1,0,2,0,3c-1,0-2,0-3,0
			C57.059,47.07,57.059,46.07,57.059,45.07z"/>
		<path fill-rule="evenodd" clip-rule="evenodd" fill="#FFB800" d="M21.059,54.07c3,0,6,0,9,0s6,0,9,0c5,0,10,0,15,0c3,0,6,0,9,0
			c2,0,4,0,6,0c3,0,6,0,9,0c-0.079,0.961,0.159,2.239-0.12,3c-5.96,0-11.92,0-17.88,0c-0.079,0.961,0.159,2.239-0.12,3
			c-2.96,0-5.92,0-8.88,0c-4,0-8,0-12,0c-3,0-6,0-9,0c0-1,0-2,0-3c-6,0-12,0-18,0c0.079-0.961-0.159-2.239,0.12-3
			C15.139,54.07,18.099,54.07,21.059,54.07z"/>
		<path fill-rule="evenodd" clip-rule="evenodd" fill="#FEF94F" d="M39.059,60.07c4,0,8,0,12,0c0,1,0,2,0,3c-1,0-2,0-3,0
			c0,4,0,8,0,12c3,0,6,0,9,0c0,1,0,2,0,3c0.961,0.079,2.239-0.159,3,0.12c0,2.96,0,5.92,0,8.88c-1,0-2,0-3,0c0,1,0,2,0,3
			c-10,0-20,0-30,0c0-1,0-2,0-3c-0.961-0.079-2.239,0.159-3-0.12c0-0.96,0-1.92,0-2.88c-0.961-0.079-2.239,0.159-3-0.12
			c0-2.96,0-5.92,0-8.88c0.961,0.079,2.239-0.159,3,0.12c0,0.96,0,1.92,0,2.88c0.961,0.079,2.239-0.159,3,0.12c0,0.96,0,1.92,0,2.88
			c1,0,2,0,3,0c0.079-0.961-0.159-2.239,0.12-3c0.96,0,1.92,0,2.88,0c0.079-0.961-0.159-2.239,0.12-3c2.96,0,5.92,0,8.88,0
			c0-4,0-8,0-12c-0.961-0.079-2.239,0.159-3-0.12C39.059,61.99,39.059,61.03,39.059,60.07z"/>
	</g>
</g>
</svg>
